<svg xmlns="http://www.w3.org/2000/svg" width="1554" height="921" fill="none" viewBox="0 0 1554 921">
  <circle cx="96" cy="809" r="9" fill="#F6AE9F"/>
  <circle cx="900" cy="146" r="9" fill="#F6AE9F"/>
  <circle cx="1495" cy="106" r="9" fill="#F6AE9F"/>
  <path fill="#FFD726" d="M61.596 109.634l4.376 16.333-55.532 14.88-4.376-16.333z"/>
  <path fill="#FFD726" d="M51.624 150.82l-16.333 4.375-14.88-55.532 16.333-4.376zM842.12 892.002l2.457 9.169-31.173 8.352-2.456-9.168z"/>
  <path fill="#FFD726" d="M836.523 915.12l-9.169 2.457-8.352-31.173 9.168-2.456zM1224.12 508.002l2.457 9.169-31.173 8.352-2.456-9.168z"/>
  <path fill="#FFD726" d="M1218.52 531.12l-9.169 2.457-8.352-31.173 9.168-2.456z"/>
  <circle cx="857" cy="468" r="9" fill="#1FC87E"/>
  <g>
    <path fill="#9CA7BD" d="M428.924 683.631l1.603 5.983 20.343-5.451-1.603-5.983z"/>
    <path fill="#9CA7BD" d="M439.631 694.87l5.983-1.603-5.451-20.343-5.983 1.603z"/>
  </g>
  <g>
    <path fill="#9CA7BD" d="M1529.92 4.63l1.603 5.984 20.343-5.451-1.603-5.983z"/>
    <path fill="#9CA7BD" d="M1540.63 15.87l5.983-1.603-5.451-20.343-5.983 1.603z"/>
  </g>
  <g>
    <path fill="#9CA7BD" d="M590.924 188.631l1.603 5.983 20.343-5.451-1.603-5.983z"/>
    <path fill="#9CA7BD" d="M601.631 199.87l5.983-1.603-5.451-20.343-5.983 1.603z"/>
  </g>
</svg>
